<?xml version="1.0" standalone="no"?>
<svg xmlns:xlink="http://www.w3.org/1999/xlink" id="wave" style="transform:rotate(180deg); transition: 0.3s" viewBox="0 0 1440 490" version="1.1" xmlns="http://www.w3.org/2000/svg"><defs><linearGradient id="sw-gradient-0" x1="0" x2="0" y1="1" y2="0"><stop stop-color="rgba(88, 28, 135, 1)" offset="0%"/><stop stop-color="rgba(168, 85, 247, 1)" offset="100%"/></linearGradient></defs><path style="transform:translate(0, 0px); opacity:1" fill="url(#sw-gradient-0)" d="M0,343L80,285.8C160,229,320,114,480,89.8C640,65,800,131,960,138.8C1120,147,1280,98,1440,73.5C1600,49,1760,49,1920,89.8C2080,131,2240,212,2400,220.5C2560,229,2720,163,2880,179.7C3040,196,3200,294,3360,351.2C3520,408,3680,425,3840,375.7C4000,327,4160,212,4320,138.8C4480,65,4640,33,4800,73.5C4960,114,5120,229,5280,261.3C5440,294,5600,245,5760,196C5920,147,6080,98,6240,65.3C6400,33,6560,16,6720,57.2C6880,98,7040,196,7200,212.3C7360,229,7520,163,7680,122.5C7840,82,8000,65,8160,81.7C8320,98,8480,147,8640,204.2C8800,261,8960,327,9120,294C9280,261,9440,131,9600,122.5C9760,114,9920,229,10080,236.8C10240,245,10400,147,10560,98C10720,49,10880,49,11040,114.3C11200,180,11360,310,11440,375.7L11520,441L11520,490L11440,490C11360,490,11200,490,11040,490C10880,490,10720,490,10560,490C10400,490,10240,490,10080,490C9920,490,9760,490,9600,490C9440,490,9280,490,9120,490C8960,490,8800,490,8640,490C8480,490,8320,490,8160,490C8000,490,7840,490,7680,490C7520,490,7360,490,7200,490C7040,490,6880,490,6720,490C6560,490,6400,490,6240,490C6080,490,5920,490,5760,490C5600,490,5440,490,5280,490C5120,490,4960,490,4800,490C4640,490,4480,490,4320,490C4160,490,4000,490,3840,490C3680,490,3520,490,3360,490C3200,490,3040,490,2880,490C2720,490,2560,490,2400,490C2240,490,2080,490,1920,490C1760,490,1600,490,1440,490C1280,490,1120,490,960,490C800,490,640,490,480,490C320,490,160,490,80,490L0,490Z"/></svg>